<?xml version="1.0" encoding="utf-8"?>
<!-- Generator: Adobe Illustrator 15.1.0, SVG Export Plug-In . SVG Version: 6.00 Build 0)  -->
<!DOCTYPE svg PUBLIC "-//W3C//DTD SVG 1.1//EN" "http://www.w3.org/Graphics/SVG/1.1/DTD/svg11.dtd">
<svg version="1.1" id="_x32_" xmlns="http://www.w3.org/2000/svg" xmlns:xlink="http://www.w3.org/1999/xlink" x="0px" y="0px"
	 width="512px" height="512px" viewBox="0 0 512 512" style="enable-background:new 0 0 512 512;" xml:space="preserve">
<style type="text/css">
<![CDATA[
	.st0{fill:#4B4B4B;}
]]>
</style>
<g>
	<path class="st0" d="M475.617,295.503l-41.406-87.781c0.109-2.625,0.203-5.25,0.203-7.906
		c0-110.344-89.468-199.813-199.843-199.813c-110.344,0-199.828,89.469-199.828,199.813c0,62.063,28.297,117.516,72.672,154.172
		v70.625c0,6.891,4.109,13.125,10.453,15.813l165.516,70.203c5.297,2.25,11.359,1.703,16.172-1.469
		c4.797-3.188,7.703-8.563,7.703-14.313v-59.859c0-9.469,7.672-17.172,17.156-17.172h84.75c9.484,0,17.156-7.688,17.156-17.156
		V349.05c0-6.578,3.766-12.578,9.672-15.453l31.594-15.328C476.055,314.144,479.617,304.003,475.617,295.503z M234.571,335.722
		c-75.031,0-135.875-60.844-135.875-135.906c0-75.031,60.844-135.875,135.875-135.875c75.063,0,135.891,60.844,135.891,135.875
		C370.461,274.878,309.633,335.722,234.571,335.722z"/>
	<path class="st0" d="M243.118,141.3c7.75,0,15.422,1.578,22.797,4.688l4.484,1.891l6.031-29.563l-3.219-1.188
		c-9.672-3.547-19.797-5.344-30.094-5.344c-38.781,0-73.125,25.516-84.563,62.422h-8.844v22.344h4.875
		c-0.063,1.266-0.094,2.563-0.094,3.859c0,3.094,0.203,6.281,0.609,9.703h-5.391v22.328h10.875
		c13.203,33.969,46.031,56.594,82.531,56.594c7.672,0,15.375-1.031,22.906-3.063l2.938-0.797v-31.406l-5.359,2
		c-6.719,2.5-13.609,3.75-20.484,3.75c-20.281,0-38.75-10.219-49.594-27.078h59.5l4.594-22.328h-72.797
		c-0.547-3.266-0.828-6.516-0.828-9.703c0-1.297,0.063-2.594,0.156-3.859h76.234l4.609-22.328l-74.781-0.016
		C200.102,154.315,220.696,141.3,243.118,141.3z"/>
</g>
</svg>
