<svg xmlns="http://www.w3.org/2000/svg" width="48" height="48" viewBox="0 0 48 48" fill="none">
  <!-- Book -->
  <path d="M8 12C8 10.9 8.9 10 10 10H22V38H10C8.9 38 8 37.1 8 36V12Z" fill="#4CAF50"/>
  <path d="M22 10H38C39.1 10 40 10.9 40 12V36C40 37.1 39.1 38 38 38H22V10Z" fill="#66BB6A"/>
  <path d="M22 10V38" stroke="#388E3C" stroke-width="1.5"/>
  <!-- Page lines -->
  <path d="M12 16H19M12 20H18M12 24H19M12 28H17" stroke="#fff" stroke-width="1.2" stroke-linecap="round"/>
  <path d="M25 16H35M25 20H33M25 24H35M25 28H32" stroke="#fff" stroke-width="1.2" stroke-linecap="round"/>
  <!-- Pencil -->
  <rect x="30" y="2" width="5" height="20" rx="1" transform="rotate(15 30 2)" fill="#FFC107"/>
  <path d="M29.3 21.5L28 26L32.2 23.8Z" fill="#FF9800"/>
  <rect x="30" y="2" width="5" height="4" rx="1" transform="rotate(15 30 2)" fill="#F48FB1"/>
  <!-- Star -->
  <path d="M38 40L39.5 43L43 43.5L40.5 46L41 49L38 47.5L35 49L35.5 46L33 43.5L36.5 43Z" fill="#FFD700" transform="translate(0,-6) scale(0.8)"/>
</svg>
